<svg width="42" height="42" viewBox="0 0 42 42" fill="none" xmlns="http://www.w3.org/2000/svg">
<path d="M39 21C39 30.9411 30.9411 39 21 39C11.0589 39 3 30.9411 3 21C3 11.0589 11.0589 3 21 3C30.9411 3 39 11.0589 39 21Z" stroke="black" stroke-width="2"/>
<path fill-rule="evenodd" clip-rule="evenodd" d="M11.92 16.8499H15.61V29.2399H11.92V16.8499ZM13.75 10.5699C14.98 10.5699 15.98 11.5699 15.98 12.7999C15.98 14.0299 14.98 15.0299 13.75 15.0299C12.52 15.0299 11.56 14.0299 11.56 12.7999C11.56 11.5699 12.52 10.5699 13.75 10.5699ZM17.8 16.8499H21.44V18.5799C22.21 17.4399 23.49 16.7099 24.95 16.7099H25.95C28.27 16.7099 30.14 18.6199 30.14 20.8999V29.2299H26.5V28.0899V22.5299C26.45 21.1199 25.5 20.0299 24.09 20.0299C22.68 20.0299 21.49 21.1199 21.45 22.5299V29.2199H17.81V16.8299L17.8 16.8499Z" fill="black"/>
</svg>
