<?xml version="1.0" encoding="UTF-8"?>
<svg id="Layer_1" data-name="Layer 1" xmlns="http://www.w3.org/2000/svg" viewBox="0 0 313.61 63.47">
  <g>
    <polygon points="102.45 43.63 102.45 19.46 99.31 19.46 90.16 33.85 90.09 33.73 81.02 19.46 77.85 19.46 77.85 43.63 82.36 43.63 82.29 28.9 88.84 39.22 91.47 39.22 97.97 29.02 97.97 43.63 102.45 43.63"/>
    <g>
      <rect x="107.92" y="27.24" width="4.46" height="16.39"/>
      <path d="M110.13,18.75c-1.57,0-2.85,1.2-2.85,2.68s1.28,2.71,2.85,2.71,2.85-1.22,2.85-2.71-1.25-2.68-2.85-2.68Z"/>
    </g>
    <path d="M125.54,31.03c1.62,0,3.25,1.19,3.25,3.86v8.75h4.46v-9c.02-2.7-.67-4.83-1.98-6.16-1.1-1.1-2.61-1.66-4.49-1.66-1.61,0-4.19.98-4.88,3.17l-.18.58v-3.32h-4.46v16.39h4.46v-8.61c0-2.95,1.97-4,3.82-4Z"/>
    <path d="M154.85,43.63v-25.41h-4.46v11.25l-.17-.25c-1.22-1.78-3.51-2.41-5.25-2.41-3.9,0-8.04,3.02-8.04,8.61s4.14,8.64,8.04,8.64c1.78,0,4.09-.76,5.25-2.44l.17-.25v2.27h4.46ZM145.86,39.91c-2.42,0-4.39-2.02-4.39-4.5s1.97-4.46,4.39-4.46c2.63,0,4.39,2.31,4.39,4.46,0,2.48-1.97,4.5-4.39,4.5Z"/>
    <path d="M169.45,27.24h-3.62v-1.34c.04-2.38,1.24-3.54,3.64-3.54h.97v-4.14h-1.89c-4.63,0-7.19,2.74-7.19,7.72v1.3h-3.12v3.43h3.12v12.96h4.46v-12.96h3.62v-3.43Z"/>
    <path d="M188.44,43.63v-16.39h-4.46v8.68c0,2.95-1.97,4-3.82,4-1.62,0-3.25-1.2-3.25-3.89v-8.78h-4.46v9.03c-.02,2.73.64,4.79,1.97,6.13,1.09,1.1,2.61,1.66,4.51,1.66,1.61,0,4.19-.95,4.88-3.06l.18-.56v3.19h4.46Z"/>
    <rect x="193.32" y="18.22" width="4.46" height="25.41"/>
    <path d="M221.35,19.35h-9.6v24.28h10.35c5.26,0,7.61-3.47,7.61-6.9,0-2.59-1.41-5.44-4.57-5.98l-.39-.07.38-.12c.99-.3,3.31-1.4,3.31-4.99s-2.84-6.23-7.08-6.23ZM216.5,23.53h4.57c1.64,0,2.62,1.03,2.62,2.76s-1,2.79-2.62,2.79h-4.57v-5.55ZM224.92,36.23c0,1.6-1.09,3.22-3.54,3.22h-4.89v-6.44h4.96c2.4,0,3.47,1.62,3.47,3.22Z"/>
    <path d="M242.12,30.99c.53,0,1.33.06,2.32.56l1.02-4.25c-.86-.42-1.94-.49-2.52-.49-2.24,0-3.93,1.39-4.78,3.91l-.18.55v-4.04h-4.43v16.39h4.46v-5.59c0-4.48,1.5-7.05,4.11-7.05Z"/>
    <path d="M264.57,43.63v-16.39h-4.46v2.43l-.17-.27c-1.03-1.59-3.05-2.58-5.28-2.58-4.71,0-8,3.55-8,8.64s3.32,8.61,7.9,8.61c2.19,0,4.31-1.08,5.39-2.76l.17-.27v2.6h4.46ZM255.58,39.91c-2.4,0-4.35-2-4.35-4.46s1.9-4.5,4.32-4.5,4.43,2.02,4.43,4.5-2.01,4.46-4.39,4.46Z"/>
    <path d="M277.74,31.03c1.62,0,3.25,1.19,3.25,3.86v8.75h4.46v-9c.02-2.7-.67-4.83-1.98-6.16-1.1-1.1-2.61-1.66-4.49-1.66-1.61,0-4.19.98-4.88,3.17l-.18.58v-3.32h-4.46v16.39h4.46v-8.61c0-2.95,1.97-4,3.82-4Z"/>
    <path d="M307.04,43.63v-25.41h-4.46v11.25l-.17-.25c-1.22-1.78-3.51-2.41-5.25-2.41-3.9,0-8.04,3.02-8.04,8.61s4.14,8.64,8.04,8.64c1.78,0,4.09-.76,5.25-2.44l.17-.25v2.27h4.46ZM298.05,39.91c-2.42,0-4.39-2.02-4.39-4.5s1.97-4.46,4.39-4.46c2.63,0,4.39,2.31,4.39,4.46,0,2.48-1.97,4.5-4.39,4.5Z"/>
  </g>
  <g>
    <path d="M52.26,41.62l2.25-2.25c4.81-4.81,1.39-13.02-5.41-13l-12.08.02v10.76h-10.71v19.67h22.81c6.81,0,10.2-8.26,5.35-13.04l-2.2-2.17Z"/>
    <polygon points="21.79 21.12 8.04 6.65 6.56 6.65 6.56 37.15 26.3 37.15 26.3 26.41 37.02 26.39 37.02 6.65 35.54 6.65 21.79 21.12"/>
  </g>
</svg>